<?xml version="1.0" ?><!DOCTYPE svg  PUBLIC '-//W3C//DTD SVG 1.1//EN'  'http://www.w3.org/Graphics/SVG/1.1/DTD/svg11.dtd'><svg enable-background="new 0 0 24 24" height="24px" id="Layer_1" version="1.1" viewBox="0 0 24 24" width="24px" xml:space="preserve" xmlns="http://www.w3.org/2000/svg" xmlns:xlink="http://www.w3.org/1999/xlink"><g><path d="M20,4c0-2.2-1.8-4-4-4s-3.7,0.7-4.7,3l-4.8,9.5C6,13.3,6,15,6,15l-6,6h9.4c0.8,0.5,1.7,0.8,2.6,0.9V24h1v-2   c0.7,0,1.4-0.1,2-0.3V24h1v-2.7c2.4-1.1,4-3.5,4-6.3V8h4L20,4z M2.5,20l3.6-3.6c0.3,1.4,1,2.7,2,3.6H2.5z M18,15c0,2.8-2.2,5-5,5   s-5-2.2-5-5c0-0.8,0.5-2,0.5-2l5-10C14,2.1,14.9,2,16,2s2,0.9,2,2V15z M20,5.5L21.5,7H20V5.5z"/><circle cx="16" cy="5" r="1"/><path d="M14,10c0-1.7-0.7-3.3-1.9-4.3l-0.5,1C12.5,7.5,13,8.7,13,10c0,2.8-2.2,5-5,5c0,0.3,0,0.7,0.1,1C11.4,15.9,14,13.3,14,10z"/></g></svg>